<svg xmlns="http://www.w3.org/2000/svg" viewBox="0 0 800 122" width="800" height="122" role="img" aria-label="Language distribution across public repositories">
  <rect x="0" y="0" width="800" height="122" fill="#0d1117"/>
  <rect x="0" y="0" width="800" height="14" rx="7" fill="#21262d"/>
  <clipPath id="bar-clip-dark"><rect x="0" y="0" width="800" height="14" rx="7"/></clipPath>
  <g clip-path="url(#bar-clip-dark)">
    <rect x="0.00" y="0" width="682.06" height="14" fill="#E8B93F"/><rect x="682.06" y="0" width="78.77" height="14" fill="#4B8BBE"/><rect x="760.83" y="0" width="17.15" height="14" fill="#3178C6"/><rect x="777.98" y="0" width="9.97" height="14" fill="#8B5CF6"/><rect x="787.95" y="0" width="7.56" height="14" fill="#E4572E"/><rect x="795.51" y="0" width="2.96" height="14" fill="#7F52FF"/><rect x="798.47" y="0" width="1.53" height="14" fill="#8B949E"/>
  </g>
  <rect x="0.0" y="26" width="10" height="10" rx="2" fill="#E8B93F"/><text x="16.0" y="35" font-family="ui-monospace,Menlo,Consolas,monospace" font-size="13" fill="#c9d1d9">JavaScript</text><text x="116.0" y="35" font-family="ui-monospace,Menlo,Consolas,monospace" font-size="13" fill="#8b949e">85%</text><rect x="266.7" y="26" width="10" height="10" rx="2" fill="#4B8BBE"/><text x="282.7" y="35" font-family="ui-monospace,Menlo,Consolas,monospace" font-size="13" fill="#c9d1d9">Python</text><text x="346.7" y="35" font-family="ui-monospace,Menlo,Consolas,monospace" font-size="13" fill="#8b949e">10%</text><rect x="533.3" y="26" width="10" height="10" rx="2" fill="#3178C6"/><text x="549.3" y="35" font-family="ui-monospace,Menlo,Consolas,monospace" font-size="13" fill="#c9d1d9">TypeScript</text><text x="649.3" y="35" font-family="ui-monospace,Menlo,Consolas,monospace" font-size="13" fill="#8b949e">2%</text><rect x="0.0" y="52" width="10" height="10" rx="2" fill="#8B5CF6"/><text x="16.0" y="61" font-family="ui-monospace,Menlo,Consolas,monospace" font-size="13" fill="#c9d1d9">CSS</text><text x="53.0" y="61" font-family="ui-monospace,Menlo,Consolas,monospace" font-size="13" fill="#8b949e">1%</text><rect x="266.7" y="52" width="10" height="10" rx="2" fill="#E4572E"/><text x="282.7" y="61" font-family="ui-monospace,Menlo,Consolas,monospace" font-size="13" fill="#c9d1d9">HTML</text><text x="328.7" y="61" font-family="ui-monospace,Menlo,Consolas,monospace" font-size="13" fill="#8b949e">1%</text><rect x="533.3" y="52" width="10" height="10" rx="2" fill="#7F52FF"/><text x="549.3" y="61" font-family="ui-monospace,Menlo,Consolas,monospace" font-size="13" fill="#c9d1d9">Kotlin</text><text x="613.3" y="61" font-family="ui-monospace,Menlo,Consolas,monospace" font-size="13" fill="#8b949e">0%</text><rect x="0.0" y="78" width="10" height="10" rx="2" fill="#8B949E"/><text x="16.0" y="87" font-family="ui-monospace,Menlo,Consolas,monospace" font-size="13" fill="#c9d1d9">Other</text><text x="71.0" y="87" font-family="ui-monospace,Menlo,Consolas,monospace" font-size="13" fill="#8b949e">0%</text>
</svg>